Coordinates
version=1
nRows=49
nColumns=12
inDegrees=yes

Units are S.I. units (second, meters, Newtons, ...)
Angles are in degrees

endheader
time	SC_y	SC_z	SC_x	AC_y	AC_z	AC_x	GH_y	GH_z	GH_yy	EL_x	PS_y
       0.0              -26.34          6.446          77.11          37.88         -1.717          19.17         -147.6          69.89          141.5          48.46          154.3
   0.03198              -26.35           6.45          77.11          37.88         -1.716          19.16         -147.6          69.88          141.5          48.46          154.3
   0.06397              -26.35          6.455           77.1          37.88         -1.715          19.16         -147.6          69.87          141.5          48.45          154.3
   0.09595              -26.35           6.46           77.1          37.88         -1.714          19.15         -147.6          69.86          141.5          48.45          154.3
    0.1279              -26.35          6.466          77.09          37.88         -1.713          19.14         -147.5          69.84          141.4          48.45          154.3
    0.1599              -26.35          6.472          77.09          37.88         -1.712          19.14         -147.5          69.83          141.4          48.45          154.3
    0.1919              -26.36          6.478          77.08          37.88          -1.71          19.13         -147.5          69.82          141.3          48.45          154.2
    0.2239              -26.36          6.485          77.07          37.88         -1.709          19.12         -147.5           69.8          141.3          48.45          154.2
    0.2559              -26.36          6.492          77.07          37.88         -1.707          19.11         -147.5          69.79          141.3          48.45          154.2
    0.2878              -26.36            6.5          77.06          37.88         -1.706           19.1         -147.5          69.77          141.2          48.44          154.2
    0.3198              -26.37          6.508          77.05          37.88         -1.704          19.09         -147.5          69.75          141.2          48.44          154.2
    0.3518              -26.37          6.517          77.04          37.88         -1.702          19.08         -147.5          69.73          141.1          48.44          154.2
    0.3838              -26.38          6.526          77.03          37.88           -1.7          19.07         -147.4          69.71          141.0          48.44          154.1
    0.4158              -26.38          6.537          77.02          37.88         -1.698          19.06         -147.4          69.69          141.0          48.44          154.1
    0.4478              -26.38          6.548          77.01          37.88         -1.696          19.05         -147.4          69.66          140.9          48.43          154.1
    0.4797              -26.39           6.56          76.99          37.88         -1.693          19.03         -147.4          69.63          140.8          48.43          154.0
    0.5117              -26.39          6.573          76.98          37.88          -1.69          19.01         -147.4           69.6          140.7          48.43          154.0
    0.5437               -26.4          6.588          76.96          37.88         -1.687           19.0         -147.3          69.57          140.7          48.42          154.0
    0.5757               -26.4          6.603          76.95          37.88         -1.684          18.98         -147.3          69.54          140.6          48.42          153.9
    0.6077              -26.41           6.62          76.93          37.88          -1.68          18.96         -147.3           69.5          140.5          48.42          153.9
    0.6397              -26.42          6.639          76.91          37.88         -1.676          18.93         -147.2          69.45          140.3          48.41          153.9
    0.6716              -26.43           6.66          76.89          37.88         -1.672          18.91         -147.2          69.41          140.2          48.41          153.8
    0.7036              -26.43          6.683          76.86          37.88         -1.667          18.88         -147.2          69.36          140.1           48.4          153.8
    0.7356              -26.44          6.708          76.83          37.89         -1.662          18.85         -147.1           69.3          139.9           48.4          153.7
    0.7676              -26.46          6.737           76.8          37.89         -1.656          18.82         -147.1          69.24          139.7          48.39          153.6
    0.7996              -26.47          6.768          76.77          37.89         -1.649          18.78         -147.0          69.17          139.5          48.38          153.5
    0.8316              -26.48          6.804          76.73          37.89         -1.642          18.73         -146.9          69.09          139.3          48.38          153.5
    0.8635               -26.5          6.843          76.69          37.89         -1.633          18.69         -146.9           69.0          139.1          48.37          153.4
    0.8955              -26.51          6.888          76.64          37.89         -1.624          18.63         -146.8           68.9          138.8          48.36          153.3
    0.9275              -26.53          6.939          76.59          37.89         -1.613          18.57         -146.7          68.78          138.5          48.35          153.1
    0.9595              -26.55          6.997          76.53           37.9         -1.601           18.5         -146.6          68.65          138.1          48.33          153.0
    0.9915              -26.58          7.064          76.46           37.9         -1.587          18.42         -146.5           68.5          137.7          48.32          152.8
     1.023              -26.61          7.141          76.37           37.9         -1.571          18.32         -146.3          68.33          137.2           48.3          152.6
     1.055              -26.64          7.231          76.28          37.91         -1.552          18.22         -146.2          68.13          136.6          48.28          152.4
     1.087              -26.68          7.336          76.17          37.91          -1.53          18.09         -146.0          67.89          136.0          48.26          152.2
     1.119              -26.73          7.459          76.04          37.91         -1.504          17.94         -145.8          67.62          135.2          48.23          151.9
     1.151              -26.79          7.606          75.88          37.92         -1.473          17.76         -145.5          67.29          134.3          48.19          151.5
     1.183              -26.85          7.782          75.69          37.93         -1.435          17.55         -145.2          66.89          133.2          48.16          151.1
     1.215              -26.93          7.995          75.47          37.94         -1.391          17.29         -144.8          66.41          131.9          48.11          150.6
     1.247              -27.03          8.255          75.19          37.95         -1.336          16.97         -144.3          65.83          130.3          48.05          149.9
     1.279              -27.16          8.576          74.85          37.96         -1.268          16.58         -143.7          65.11          128.3          47.98          149.2
     1.311              -27.31          8.977          74.42          37.97         -1.184          16.09         -143.0          64.21          125.8          47.89          148.2
     1.343               -27.5          9.481          73.89          37.99         -1.077          15.48         -142.1          63.08          122.6          47.77          147.0
     1.375              -27.75          10.12           73.2          38.02        -0.9421           14.7         -141.0          61.64          118.6          47.63          145.4
     1.407              -28.06          10.94          72.33          38.05        -0.7691           13.7         -139.5           59.8          113.5          47.44          143.4
     1.439              -28.46           12.0          71.21          38.09        -0.5471          12.42         -137.6          57.44          106.9          47.21          140.9
     1.471              -28.97          13.34          69.78          38.14        -0.2635          10.79         -135.2          54.42          98.56           46.9          137.6
     1.503              -29.62          15.03          67.98          38.21         0.0931          8.732         -132.1          50.63          88.01          46.52          133.5
     1.535               -30.4          17.09          65.79          38.29         0.5277          6.227         -128.4          46.01          75.16          46.06          128.5
